<svg xmlns="http://www.w3.org/2000/svg" viewBox="0 0 401 460">
  <g id="brazoIzquierdo">
    <g>
      <g>
        <path d="M30.58,315.15c2.31,17.43,19.32,29.56,38,27.09a35.59,35.59,0,0,0,16.85-6.84L81.85,283l-.13-.16a8.06,8.06,0,0,1-5-5.16,13.84,13.84,0,0,0-27,4,.8.8,0,0,1-.47.72C36.64,288.46,28.77,301.41,30.58,315.15Z" style="fill: #fff"/>
        <path d="M85.45,335.4a3.08,3.08,0,0,0,3.11,2.88c4.11,0,38.87-4.93,42.81-5.31,3-.29,8.7-2,13.35-3.54a36.62,36.62,0,0,0,16-10.39c5.65-6.32,11.63-16,9.6-27.09-1.5-8.22-6.91-14.11-12.39-18.09a28.79,28.79,0,0,0-23-4.77l-50.63,9.83a3.1,3.1,0,0,0-2.43,3.24l.06.82Z" style="fill: #e22f28"/>
      </g>
      <g>
        <path d="M85.45,335.4a3.08,3.08,0,0,0,3.11,2.88c4.11,0,38.87-4.93,42.81-5.31,3-.29,8.7-2,13.35-3.54a36.62,36.62,0,0,0,16-10.39c5.65-6.32,11.63-16,9.6-27.09-1.5-8.22-6.91-14.11-12.39-18.09a28.79,28.79,0,0,0-23-4.77l-50.63,9.83a3.1,3.1,0,0,0-2.43,3.24l.06.82" style="fill: none;stroke: #000;stroke-miterlimit: 10;stroke-width: 8px"/>
        <path d="M81.85,283l-.13-.16a8.06,8.06,0,0,1-5-5.16,13.84,13.84,0,0,0-27,4,.8.8,0,0,1-.47.72c-12.56,6.07-20.43,19-18.62,32.76,2.31,17.43,19.32,29.56,38,27.09a35.59,35.59,0,0,0,16.85-6.84Z" style="fill: none;stroke: #000;stroke-miterlimit: 10;stroke-width: 8px"/>
      </g>
    </g>
  </g>
  <g id="brazoDerecho">
    <g>
      <g>
        <path d="M370.75,247.36c8,15.66.88,35.31-15.91,43.89a35.63,35.63,0,0,1-17.75,3.94L310.28,250v-.21a8,8,0,0,0,1.23-7.11,14.09,14.09,0,0,1-.38-6.23A13.85,13.85,0,0,1,336,230.64a.8.8,0,0,0,.8.33C350.61,228.84,364.44,235,370.75,247.36Z" style="fill: #fff"/>
        <path d="M337.09,295.19a3.08,3.08,0,0,1-.92,4.14c-3.41,2.3-34.8,18-38.26,19.94-2.64,1.47-8.3,3.29-13,4.68a36.71,36.71,0,0,1-19,.5c-8.24-2-18.63-6.52-23.28-16.84-3.43-7.62-2.33-15.53-.08-21.93a28.81,28.81,0,0,1,16.26-17L306,248a3.12,3.12,0,0,1,3.84,1.29l.42.71Z" style="fill: #e22f28"/>
      </g>
      <g>
        <path d="M337.09,295.19a3.08,3.08,0,0,1-.92,4.14c-3.41,2.3-34.8,18-38.26,19.94-2.64,1.47-8.3,3.29-13,4.68a36.71,36.71,0,0,1-19,.5c-8.24-2-18.63-6.52-23.28-16.84-3.43-7.62-2.33-15.53-.08-21.93a28.81,28.81,0,0,1,16.26-17L306,248a3.12,3.12,0,0,1,3.84,1.29l.42.71" style="fill: none;stroke: #000;stroke-miterlimit: 10;stroke-width: 8px"/>
        <path d="M310.28,250v-.21a8,8,0,0,0,1.23-7.11,14.09,14.09,0,0,1-.38-6.23A13.85,13.85,0,0,1,336,230.64a.8.8,0,0,0,.8.33c13.79-2.13,27.62,4.05,33.93,16.39,8,15.66.88,35.31-15.91,43.89a35.63,35.63,0,0,1-17.75,3.94Z" style="fill: none;stroke: #000;stroke-miterlimit: 10;stroke-width: 8px"/>
      </g>
    </g>
  </g>
  <g id="cuerpo">
    <g>
      <g>
        <path d="M107.71,377.64h98.91c-.08,50.31-5.73,53.26-49.1,53.26-38.64,0-47.8-21.06-49.82-53.26Z" style="fill: #fff"/>
        <path d="M206.63,377.64h98.49c-2,45.93-14.12,53.26-53.58,53.26C208.19,430.9,206.65,425.6,206.63,377.64Z" style="fill: #fff"/>
        <path d="M242.65,246a38,38,0,1,1-72.91,5Z" style="fill: #e22f28"/>
        <path d="M305.43,361.43c0,5.88-.1,11.27-.31,16.21H206.63V376.4c0,.42,0,.83,0,1.24H107.7c-.27-4.22-.41-8.63-.48-13.21-.59-39.52,41.32-112,41.32-112l21.2-1.45a38,38,0,1,0,72.91-5l10.68-.73S305.43,301,305.43,361.43Z" style="fill: #3974ba"/>
      </g>
      <g>
        <path d="M169.74,251l-21.2,1.45s-41.91,72.46-41.32,112c.07,4.58.21,9,.48,13.21,2,32.2,11.18,53.26,49.82,53.26,43.37,0,49-2.95,49.1-53.26,0-.41,0-.82,0-1.24v1.24c0,48,1.56,53.26,44.91,53.26,39.46,0,51.59-7.33,53.58-53.26.21-4.94.31-10.33.31-16.21,0-60.48-52.1-116.16-52.1-116.16l-10.68.73Z" style="fill: none;stroke: #000;stroke-linecap: round;stroke-miterlimit: 10;stroke-width: 9px"/>
        <path d="M242.65,246a38,38,0,1,1-35.73-25A37.85,37.85,0,0,1,242.65,246Z" style="fill: none;stroke: #000;stroke-linecap: round;stroke-miterlimit: 10;stroke-width: 9px"/>
        <polyline points="107.71 377.64 206.62 377.64 206.63 377.64 305.12 377.64 305.43 377.64" style="fill: none;stroke: #000;stroke-linecap: round;stroke-miterlimit: 10;stroke-width: 9px"/>
      </g>
    </g>
  </g>
  <g id="cabeza">
    <ellipse cx="200.5" cy="161.44" rx="140.86" ry="111.38" style="fill: #fff"/>
  </g>
  <g id="orejaIzquierda">
    <path d="M87.22,101.48l-10.57,10.4S55.8,67.09,80.52,47.3c15.74-12.6,58.06,14.08,58.06,14.08" style="fill: #fff;stroke: #000;stroke-linecap: round;stroke-miterlimit: 10;stroke-width: 10px"/>
  </g>
  <g id="orejaDerecha">
    <g id="orejaIzquierda_copy" data-name="orejaIzquierda copy">
      <path d="M314,90.22s12.4-50.94-9.76-65.31C287.31,13.94,244.72,52,244.72,52" style="fill: #fff;stroke: #000;stroke-linecap: round;stroke-miterlimit: 10;stroke-width: 10px"/>
    </g>
  </g>
  <g id="contornoCabeza">
    <path d="M193.82,277.43c-28.37,0-54.7-6.32-76.5-18.41s-38.6-29.45-48.77-50.29a99.59,99.59,0,0,1-9.72-54.84,100.64,100.64,0,0,1,23.39-53.43,4.5,4.5,0,0,1,6.89,5.79c-24,28.55-28.63,65.39-12.47,98.53,20.09,41.18,67.49,65.52,123.7,63.54,37-1.31,71.43-12.92,96.85-32.71s39.51-46.14,39.67-74.2c.19-33.32-16.6-62.71-47.28-82.75-42.65-27.87-103.91-33.32-149-13.25A4.5,4.5,0,0,1,137,57.19C184.65,36,249.44,41.68,294.51,71.12c33.32,21.77,51.55,53.86,51.35,90.34-.18,30.88-15.5,59.74-43.15,81.25-26.89,20.94-63.14,33.23-102,34.6Q197.23,277.43,193.82,277.43Z"/>
  </g>
  <g id="monio">
    <path d="M285.07,76.41S312,53.65,327.58,68c11.43,12,9.3,26.68,0,46.71-9.88,21.29-31.13,23.35-42.51,15.57s-19.76-31.6-19.76-31.6l-22.76-9.12s-10.77,24.55-35.33,12.58S192,63.83,200.5,45.87s25.89-25.75,36.07-21c21.55,8.38,28.48,41.92,28.91,44.31S285.07,76.41,285.07,76.41Z" style="fill: #ef6c6c;stroke: #000;stroke-linecap: round;stroke-miterlimit: 10;stroke-width: 8px"/>
    <rect x="222.76" y="79.34" width="86.09" height="11.98" rx="5.99" transform="translate(62 -105.45) rotate(25.31)" style="fill: #ef6c6c;stroke: #000;stroke-linecap: round;stroke-miterlimit: 10;stroke-width: 6px"/>
    <circle cx="264.61" cy="85.33" r="26.43" style="fill: #ef6c6c;stroke: #000;stroke-linecap: round;stroke-miterlimit: 10;stroke-width: 6px"/>
  </g>
  <g id="ojoDerecho">
    <ellipse cx="274.89" cy="180.6" rx="9.58" ry="14.37"/>
  </g>
  <g id="ojoIzquierdo">
    <ellipse cx="133.57" cy="190.18" rx="9.58" ry="14.37"/>
  </g>
  <g id="nariz">
    <ellipse cx="207.52" cy="208.74" rx="12.87" ry="9.58" style="fill: #fabd3a;stroke: #000;stroke-miterlimit: 10;stroke-width: 6px"/>
  </g>
  <g id="bigotes">
    <path d="M319.8,159s29.34-10.18,52.69-6.58" style="fill: #fabd3a;stroke: #000;stroke-linecap: round;stroke-miterlimit: 10;stroke-width: 9px"/>
    <line x1="328.78" y1="182.99" x2="365.91" y2="187.78" style="fill: none;stroke: #000;stroke-linecap: round;stroke-miterlimit: 10;stroke-width: 9px"/>
    <path d="M316.81,212.93s32.93,4.2,42.51,12" style="fill: none;stroke: #000;stroke-linecap: round;stroke-miterlimit: 10;stroke-width: 9px"/>
    <path d="M109,230s-35.93,15.27-42.51,26.05" style="fill: none;stroke: #000;stroke-linecap: round;stroke-miterlimit: 10;stroke-width: 9px"/>
    <line x1="87.76" y1="209.94" x2="52.73" y2="218.92" style="fill: none;stroke: #000;stroke-linecap: round;stroke-miterlimit: 10;stroke-width: 9px"/>
    <path d="M87.76,183S53.93,182.4,33,187.78" style="fill: none;stroke: #000;stroke-linecap: round;stroke-miterlimit: 10;stroke-width: 9px"/>
  </g>
</svg>
